<?xml version="1.0" standalone="no"?>
<!DOCTYPE svg PUBLIC "-//W3C//DTD SVG 20010904//EN"
 "http://www.w3.org/TR/2001/REC-SVG-20010904/DTD/svg10.dtd">
<svg version="1.0" xmlns="http://www.w3.org/2000/svg"
 width="900.000000pt" height="900.000000pt" viewBox="0 0 900.000000 900.000000"
 preserveAspectRatio="xMidYMid meet">

<g transform="translate(0.000000,900.000000) scale(0.100000,-0.100000)"
fill="#000000" stroke="none">
<path d="M4598 8093 c-45 -52 -68 -170 -76 -398 l-7 -180 -24 70 c-77 228
-184 401 -235 382 -63 -24 -84 -177 -106 -757 -5 -151 -15 -293 -21 -315 -22
-83 -143 -375 -210 -508 -100 -200 -224 -413 -438 -755 -151 -241 -350 -530
-422 -613 -84 -96 -251 -281 -279 -309 -8 -8 -61 -65 -117 -125 l-102 -111
-140 -32 c-223 -52 -466 -133 -760 -252 -209 -84 -484 -210 -477 -217 2 -3 53
10 113 27 736 217 1430 344 2208 405 1292 102 2696 -47 3824 -404 51 -16 90
-26 85 -22 -21 19 -325 148 -602 255 -315 123 -825 270 -1156 335 l-139 28 -2
169 c-3 221 -46 448 -145 763 -51 164 -57 203 -36 236 26 39 76 33 229 -27
115 -45 143 -52 219 -56 75 -3 99 0 168 23 107 35 130 31 204 -43 102 -99 129
-110 171 -67 35 34 32 70 -14 178 -69 161 -81 178 -202 268 l-110 82 33 14
c18 8 81 32 140 53 131 47 222 105 311 198 111 116 134 197 74 257 -26 26 -59
41 -167 75 -74 23 -153 48 -175 56 -60 20 -288 80 -394 104 -51 11 -118 32
-147 47 -56 27 -136 105 -190 184 -39 57 -73 74 -326 156 -108 35 -211 74
-229 86 -61 41 -97 128 -195 472 -80 281 -96 313 -136 268z"/>
<path d="M6694 3729 c-44 -13 -98 -69 -113 -119 -45 -149 126 -283 268 -210
115 58 140 186 54 280 -49 55 -126 73 -209 49z m127 -54 c39 -21 69 -71 69
-115 0 -67 -61 -130 -125 -130 -39 0 -83 27 -105 63 -67 109 49 239 161 182z"/>
<path d="M1750 3555 l0 -175 100 0 100 0 0 25 c0 24 -2 25 -70 25 l-70 0 0 55
0 55 70 0 c68 0 70 1 70 25 0 24 -2 25 -70 25 l-70 0 0 45 0 45 70 0 c68 0 70
1 70 25 l0 25 -100 0 -100 0 0 -175z"/>
<path d="M2110 3554 l0 -175 28 3 27 3 0 108 c0 59 2 107 6 107 3 0 55 -44
115 -97 61 -54 118 -104 127 -112 16 -13 17 -2 17 163 l0 176 -30 0 -30 0 0
-116 0 -115 -82 79 c-107 103 -161 151 -170 152 -5 0 -8 -79 -8 -176z"/>
<path d="M2570 3705 c0 -23 3 -25 50 -25 l50 0 0 -151 0 -150 28 3 27 3 0 148
0 147 48 0 c44 0 47 2 47 25 l0 25 -125 0 -125 0 0 -25z"/>
<path d="M2960 3555 l0 -175 30 0 29 0 3 76 3 76 55 -76 c49 -67 59 -75 88
-76 17 0 32 3 32 6 0 5 -27 41 -103 141 -6 9 -1 16 17 23 40 15 59 68 43 117
-16 48 -45 63 -129 63 l-68 0 0 -175z m121 115 c42 -23 14 -80 -40 -80 -18 0
-21 6 -21 45 0 39 3 45 21 45 11 0 29 -5 40 -10z"/>
<path d="M3340 3555 l0 -175 100 0 100 0 0 25 c0 24 -2 25 -70 25 l-70 0 0 55
0 55 70 0 c68 0 70 1 70 25 0 24 -2 25 -70 25 l-70 0 0 45 0 45 70 0 c68 0 70
1 70 25 l0 25 -100 0 -100 0 0 -175z"/>
<path d="M3700 3555 l0 -175 30 0 30 0 0 117 c0 95 2 114 13 101 20 -26 229
-208 238 -208 5 0 9 77 9 170 l0 170 -30 0 -29 0 -3 -114 -3 -113 -120 113
c-66 63 -123 114 -127 114 -5 0 -8 -79 -8 -175z"/>
<path d="M5160 3555 l0 -175 30 0 30 0 0 175 0 175 -30 0 -30 0 0 -175z"/>
<path d="M5400 3555 l0 -175 100 0 100 0 0 25 c0 24 -2 25 -70 25 l-70 0 0 55
0 55 70 0 c68 0 70 1 70 25 0 24 -2 25 -70 25 l-70 0 0 45 0 45 70 0 c68 0 70
1 70 25 l0 25 -100 0 -100 0 0 -175z"/>
<path d="M5760 3555 l0 -175 31 0 30 0 -3 110 c-2 61 1 110 5 110 5 0 34 -24
65 -54 75 -71 175 -156 185 -156 4 0 7 77 7 170 l0 170 -30 0 -30 0 0 -110 c0
-60 -3 -110 -6 -110 -3 0 -36 29 -73 64 -113 108 -166 156 -173 156 -5 0 -8
-79 -8 -175z"/>
<path d="M6220 3705 c0 -23 3 -25 50 -25 l50 0 0 -150 0 -150 30 0 30 0 0 150
0 150 45 0 c41 0 45 2 45 25 l0 25 -125 0 -125 0 0 -25z"/>
<path d="M4316 3713 c-10 -10 -156 -313 -156 -324 0 -5 13 -9 29 -9 26 0 32 6
47 45 l17 45 71 0 71 0 18 -45 c17 -41 22 -45 52 -45 l34 0 -75 150 c-40 82
-74 154 -74 159 0 13 -26 32 -34 24z m54 -185 c0 -5 -20 -8 -45 -8 -25 0 -45
2 -45 5 0 2 10 25 22 50 l22 46 23 -43 c12 -24 22 -46 23 -50z"/>
<path d="M4676 3709 c-11 -31 -76 -299 -76 -313 0 -10 9 -16 25 -16 26 0 28 6
58 135 l14 60 31 -60 c17 -33 42 -77 54 -98 l24 -38 42 73 c22 40 44 81 48 91
12 32 21 17 40 -70 18 -83 21 -88 47 -91 17 -2 27 1 27 10 -1 19 -77 319 -83
325 -3 3 -32 -50 -64 -116 l-59 -121 -44 92 c-61 128 -78 155 -84 137z"/>
<path d="M1930 3160 c-139 -33 -261 -135 -323 -270 -26 -57 -31 -79 -35 -177
-4 -93 -1 -122 16 -180 50 -164 185 -288 352 -324 75 -16 212 -6 282 20 97 37
100 41 108 167 4 60 5 112 3 116 -2 4 -23 -6 -47 -22 -82 -55 -134 -73 -221
-73 -93 0 -135 15 -187 67 -53 53 -72 100 -76 189 -5 94 13 150 66 209 55 61
104 83 187 82 81 -1 142 -24 209 -79 l44 -35 5 52 c4 29 9 83 13 120 l6 67
-58 29 c-33 16 -83 35 -112 41 -60 13 -180 13 -232 1z"/>
<path d="M2889 3108 c-123 -242 -398 -791 -416 -830 l-22 -48 112 0 113 0 29
65 29 65 187 0 c186 0 188 0 195 -22 3 -13 16 -42 26 -65 l20 -43 114 0 c63 0
114 4 114 9 0 7 -299 623 -408 839 -25 50 -50 92 -54 92 -4 0 -22 -28 -39 -62z
m91 -455 c27 -67 50 -124 50 -127 0 -3 -52 -6 -116 -6 -64 0 -114 4 -112 8 72
172 114 260 120 254 4 -4 30 -62 58 -129z"/>
<path d="M3520 2701 l0 -471 105 0 105 0 0 246 0 246 33 -27 c17 -15 61 -55
97 -89 36 -34 117 -108 180 -166 63 -57 147 -134 185 -172 114 -110 106 -143
103 405 l-3 472 -102 3 -103 3 0 -246 c0 -135 -3 -245 -6 -245 -6 0 -137 117
-279 250 -198 185 -279 255 -296 258 -18 3 -19 -14 -19 -467z"/>
<path d="M5100 2700 l0 -470 105 0 105 0 2 247 3 247 90 -84 c50 -46 115 -106
145 -135 30 -28 116 -108 192 -178 75 -70 143 -127 152 -127 14 0 16 47 16
475 l0 475 -105 0 -105 0 0 -251 0 -252 -48 44 c-26 24 -97 89 -157 145 -61
55 -167 153 -236 217 -70 64 -134 117 -143 117 -15 0 -16 -43 -16 -470z"/>
<path d="M6464 3151 c-84 -24 -142 -60 -205 -129 -98 -106 -135 -214 -126
-371 8 -142 51 -237 149 -327 100 -93 207 -130 350 -122 288 17 485 288 428
589 -33 173 -170 319 -344 365 -69 19 -178 16 -252 -5z m207 -206 c96 -34 169
-146 169 -260 0 -154 -130 -290 -261 -272 -97 13 -183 88 -210 185 -14 51 -7
177 12 212 69 126 176 175 290 135z"/>
<path d="M4610 2690 l0 -460 110 0 110 0 0 460 0 460 -110 0 -110 0 0 -460z"/>
<path d="M2860 1780 c0 -82 3 -100 15 -100 12 0 15 18 15 100 0 82 -3 100 -15
100 -12 0 -15 -18 -15 -100z"/>
<path d="M3043 1870 c-59 -24 -70 -123 -18 -167 40 -35 131 -28 157 11 4 6 8
23 8 39 0 25 -3 27 -40 27 -29 0 -40 -4 -40 -15 0 -9 10 -15 26 -15 37 0 25
-23 -19 -34 -28 -7 -41 -6 -61 8 -74 48 -9 154 71 117 19 -9 29 -9 37 -1 28
29 -66 52 -121 30z"/>
<path d="M3280 1780 c0 -93 1 -100 20 -100 16 0 19 8 22 61 l3 61 67 -61 c36
-34 69 -61 72 -61 3 0 6 45 6 100 0 93 -1 100 -20 100 -18 0 -20 -7 -20 -60 0
-33 -2 -60 -5 -60 -3 0 -30 24 -61 52 -87 83 -84 84 -84 -32z"/>
<path d="M3590 1789 c-57 -115 -55 -109 -32 -109 10 0 24 11 30 25 9 20 19 25
50 25 32 0 41 -5 50 -25 7 -15 20 -25 32 -25 18 0 16 9 -30 100 -28 55 -51
100 -53 100 -1 0 -22 -41 -47 -91z m64 -5 c9 -23 8 -24 -14 -24 -11 0 -20 2
-20 4 0 12 13 36 20 36 4 0 11 -7 14 -16z"/>
<path d="M3854 1870 c-33 -13 -54 -50 -54 -93 0 -55 43 -97 98 -97 54 0 72 8
72 32 0 15 -4 18 -17 13 -45 -19 -72 -17 -97 8 -33 33 -33 61 -1 92 26 27 49
31 89 15 31 -11 42 2 20 24 -17 17 -75 20 -110 6z"/>
<path d="M4070 1780 c0 -82 3 -100 15 -100 12 0 15 18 15 100 0 82 -3 100 -15
100 -12 0 -15 -18 -15 -100z"/>
<path d="M4241 1864 c-13 -9 -29 -32 -37 -50 -12 -29 -12 -39 0 -68 18 -42 51
-66 94 -66 63 0 112 44 112 100 0 78 -104 129 -169 84z m122 -45 c9 -12 17
-29 17 -39 0 -27 -32 -59 -65 -66 -41 -8 -85 26 -85 66 0 63 90 90 133 39z"/>
<path d="M4626 1865 c-4 -11 2 -15 24 -15 l30 0 0 -85 c0 -74 2 -85 18 -85 15
0 17 11 17 83 l0 82 28 3 c15 2 27 9 27 18 0 21 -135 20 -144 -1z"/>
<path d="M4890 1867 c-14 -7 -33 -29 -43 -49 -16 -33 -16 -40 -4 -71 19 -43
52 -67 95 -67 63 0 112 44 112 100 0 75 -88 123 -160 87z m113 -48 c9 -12 17
-29 17 -39 0 -27 -32 -59 -65 -66 -41 -8 -85 26 -85 66 0 63 90 90 133 39z"/>
<path d="M5140 1780 c0 -93 1 -100 20 -100 17 0 20 7 20 42 l0 42 31 -42 c19
-25 39 -42 51 -42 22 0 20 6 -26 58 -20 22 -20 22 2 42 48 45 18 100 -54 100
l-44 0 0 -100z m80 55 c15 -18 5 -35 -21 -35 -14 0 -19 7 -19 25 0 28 21 33
40 10z"/>
<path d="M5360 1780 c0 -80 3 -100 14 -100 10 0 16 14 18 43 l3 42 30 -42 c20
-29 37 -43 53 -43 23 0 23 1 -11 42 -34 41 -35 42 -15 58 23 18 27 62 8 85 -8
9 -29 15 -56 15 l-44 0 0 -100z m69 61 c19 -12 6 -41 -19 -41 -15 0 -20 7 -20
25 0 26 14 31 39 16z"/>
<path d="M5570 1780 l0 -100 60 0 c47 0 60 3 60 15 0 11 -11 15 -42 15 -41 0
-43 1 -43 30 0 29 2 30 43 30 31 0 42 4 42 15 0 11 -11 15 -39 15 -33 0 -39 3
-43 25 -5 24 -3 25 38 25 32 0 44 4 44 15 0 12 -13 15 -60 15 l-60 0 0 -100z"/>
<path d="M5796 1867 c-32 -23 -17 -68 32 -95 23 -13 42 -30 42 -37 0 -22 -39
-29 -60 -10 -18 16 -40 13 -40 -5 0 -19 33 -40 61 -40 49 0 69 16 69 55 0 29
-6 37 -42 57 -23 13 -43 28 -45 34 -6 17 25 26 47 14 24 -13 37 5 20 25 -15
19 -60 19 -84 2z"/>
</g>
</svg>
